<svg xmlns="http://www.w3.org/2000/svg" xmlns:xlink="http://www.w3.org/1999/xlink" width="60" height="60" viewBox="0 0 60 60"><defs><style>.a{fill:url(#a);}</style><linearGradient id="a" x1="0.5" x2="0.5" y2="1.228" gradientUnits="objectBoundingBox"><stop offset="0" stop-color="#ffd036"/><stop offset="1" stop-color="#cc9f08"/></linearGradient></defs><path class="a" d="M19.667,3A16.667,16.667,0,0,0,3,19.667V46.333A16.667,16.667,0,0,0,19.667,63H46.333A16.667,16.667,0,0,0,63,46.333V19.667A16.667,16.667,0,0,0,46.333,3ZM53,9.667A3.333,3.333,0,1,1,49.667,13,3.343,3.343,0,0,1,53,9.667ZM33,16.333A16.667,16.667,0,1,1,16.333,33,16.667,16.667,0,0,1,33,16.333ZM33,23A10,10,0,1,0,43.007,33,10,10,0,0,0,33,23Z" transform="translate(-3 -3)"/></svg>