<svg xmlns="http://www.w3.org/2000/svg" width="18" height="18" viewBox="0 0 18 18"><defs><style>.a{fill:none;}.b{fill:#fff;}</style></defs><path class="a" d="M0,0H18V18H0Z"/><path class="b" d="M17.782,12A13.432,13.432,0,0,0,9,8.819,13.432,13.432,0,0,0,.218,12a.648.648,0,0,0,0,.968l1.86,1.691a.787.787,0,0,0,.533.2.812.812,0,0,0,.525-.191,8.629,8.629,0,0,1,2-1.261.677.677,0,0,0,.42-.614V10.68a11.973,11.973,0,0,1,3.45-.5,12.211,12.211,0,0,1,3.45.491v2.114a.684.684,0,0,0,.42.614,8.7,8.7,0,0,1,1.995,1.261.777.777,0,0,0,.525.191.787.787,0,0,0,.532-.2l1.86-1.691a.64.64,0,0,0,0-.961ZM15.87,4.9l-1.057-.961-2.67,2.421,1.058.961S15.788,4.925,15.87,4.9ZM9.75,2H8.25V5.409h1.5ZM4.8,7.325l1.057-.961L3.2,3.937,2.13,4.9c.082.02,2.67,2.421,2.67,2.421Z" transform="translate(0)"/></svg>