<svg id="Layer_1" data-name="Layer 1" xmlns="http://www.w3.org/2000/svg" xmlns:xlink="http://www.w3.org/1999/xlink" viewBox="0 0 151.63 152.15"><defs><style>.cls-1{fill:url(#linear-gradient);}.cls-2{fill:url(#linear-gradient-2);}.cls-3{fill:url(#linear-gradient-3);}.cls-4{fill:url(#linear-gradient-4);}.cls-5{fill:url(#linear-gradient-5);}.cls-6{fill:url(#linear-gradient-6);}.cls-7{fill:url(#linear-gradient-7);}.cls-10,.cls-11,.cls-12,.cls-13,.cls-14,.cls-8,.cls-9{fill:none;stroke-miterlimit:10;}.cls-8{stroke:url(#linear-gradient-8);}.cls-9{stroke:url(#linear-gradient-9);}.cls-10{stroke:url(#linear-gradient-10);}.cls-11{stroke:url(#linear-gradient-11);}.cls-12{stroke:url(#linear-gradient-12);}.cls-13{stroke:url(#linear-gradient-13);}.cls-14{stroke:url(#linear-gradient-14);}</style><linearGradient id="linear-gradient" x1="-18.29" y1="145.36" x2="67.34" y2="34.16" gradientUnits="userSpaceOnUse"><stop offset="0" stop-color="#cc9f08"/><stop offset="1" stop-color="#ffd036"/></linearGradient><linearGradient id="linear-gradient-2" x1="-30.66" y1="135.83" x2="54.97" y2="24.64" xlink:href="#linear-gradient"/><linearGradient id="linear-gradient-3" x1="-22.16" y1="142.38" x2="63.47" y2="31.18" xlink:href="#linear-gradient"/><linearGradient id="linear-gradient-4" x1="7.37" y1="165.12" x2="93" y2="53.92" xlink:href="#linear-gradient"/><linearGradient id="linear-gradient-5" x1="9.2" y1="166.53" x2="94.83" y2="55.33" xlink:href="#linear-gradient"/><linearGradient id="linear-gradient-6" x1="45.85" y1="194.75" x2="131.48" y2="83.55" xlink:href="#linear-gradient"/><linearGradient id="linear-gradient-7" x1="15.28" y1="171.21" x2="100.91" y2="60.01" xlink:href="#linear-gradient"/><linearGradient id="linear-gradient-8" x1="89.15" y1="25.62" x2="66.59" y2="15.33" gradientUnits="userSpaceOnUse"><stop offset="0" stop-color="#fffb90"/><stop offset="0.05" stop-color="#eee37e"/><stop offset="0.15" stop-color="#c2a64e"/><stop offset="0.24" stop-color="#996c22"/><stop offset="0.44" stop-color="#f0e87b"/><stop offset="0.66" stop-color="#ffa"/><stop offset="0.83" stop-color="#fbe878"/><stop offset="1" stop-color="#d1ab59"/></linearGradient><linearGradient id="linear-gradient-9" x1="54.53" y1="45.01" x2="31.96" y2="34.71" xlink:href="#linear-gradient-8"/><linearGradient id="linear-gradient-10" x1="39.11" y1="82.6" x2="16.55" y2="72.31" xlink:href="#linear-gradient-8"/><linearGradient id="linear-gradient-11" x1="105.99" y1="81.78" x2="57.26" y2="59.55" xlink:href="#linear-gradient-8"/><linearGradient id="linear-gradient-12" x1="76.8" y1="123.49" x2="28.07" y2="101.26" xlink:href="#linear-gradient-8"/><linearGradient id="linear-gradient-13" x1="135.18" y1="123.49" x2="86.45" y2="101.26" xlink:href="#linear-gradient-8"/><linearGradient id="linear-gradient-14" x1="131.6" y1="41.62" x2="107.84" y2="30.78" xlink:href="#linear-gradient-8"/></defs><polygon class="cls-1" points="77.87 7.96 73.7 16.31 65.36 20.48 73.7 24.65 77.87 32.99 82.04 24.65 90.38 20.48 82.04 16.31 77.87 7.96"/><polygon class="cls-2" points="43.24 27.35 39.08 35.69 30.73 39.86 39.08 44.03 43.24 52.37 47.41 44.03 55.76 39.86 47.41 35.69 43.24 27.35"/><polygon class="cls-3" points="27.83 64.95 23.66 73.29 15.32 77.46 23.66 81.63 27.83 89.97 32 81.63 40.34 77.46 32 73.29 27.83 64.95"/><polygon class="cls-4" points="62.36 49.67 61.4 52.52 51.24 83.03 104.5 83.03 93.39 49.67 62.36 49.67"/><polygon class="cls-5" points="33.17 91.37 32.21 94.22 22.05 124.73 75.31 124.73 64.2 91.37 33.17 91.37"/><polygon class="cls-6" points="91.55 91.37 90.59 94.22 80.43 124.73 133.69 124.73 122.58 91.37 91.55 91.37"/><path class="cls-7" d="M135.2,31.94,117.65,49.49a3.77,3.77,0,0,1-2.67,1.1,3.72,3.72,0,0,1-2.66-1.1l-6.71-6.71a3.77,3.77,0,0,1,5.33-5.33l4,4L129.87,26.6a3.77,3.77,0,0,1,5.33,5.34Z"/><polygon class="cls-8" points="77.87 7.96 73.7 16.31 65.36 20.48 73.7 24.65 77.87 32.99 82.04 24.65 90.38 20.48 82.04 16.31 77.87 7.96"/><polygon class="cls-9" points="43.24 27.35 39.08 35.69 30.73 39.86 39.08 44.03 43.24 52.37 47.41 44.03 55.76 39.86 47.41 35.69 43.24 27.35"/><polygon class="cls-10" points="27.83 64.95 23.66 73.29 15.32 77.46 23.66 81.63 27.83 89.97 32 81.63 40.34 77.46 32 73.29 27.83 64.95"/><polygon class="cls-11" points="62.36 49.67 61.4 52.52 51.24 83.03 104.5 83.03 93.39 49.67 62.36 49.67"/><polygon class="cls-12" points="33.17 91.37 32.21 94.22 22.05 124.73 75.31 124.73 64.2 91.37 33.17 91.37"/><polygon class="cls-13" points="91.55 91.37 90.59 94.22 80.43 124.73 133.69 124.73 122.58 91.37 91.55 91.37"/><path class="cls-14" d="M135.2,31.94,117.65,49.49a3.77,3.77,0,0,1-2.67,1.1,3.72,3.72,0,0,1-2.66-1.1l-6.71-6.71a3.77,3.77,0,0,1,5.33-5.33l4,4L129.87,26.6a3.77,3.77,0,0,1,5.33,5.34Z"/></svg>