<svg id="Layer_1" data-name="Layer 1" xmlns="http://www.w3.org/2000/svg" xmlns:xlink="http://www.w3.org/1999/xlink" viewBox="0 0 151.63 152.15"><defs><style>.cls-1{fill:url(#linear-gradient);}.cls-2{fill:url(#linear-gradient-2);}.cls-3,.cls-4{fill:none;stroke-miterlimit:10;stroke-width:0.75px;}.cls-3{stroke:url(#linear-gradient-3);}.cls-4{stroke:url(#linear-gradient-4);}</style><linearGradient id="linear-gradient" x1="29.86" y1="54.24" x2="121.77" y2="54.24" gradientUnits="userSpaceOnUse"><stop offset="0" stop-color="#cc9f08"/><stop offset="1" stop-color="#ffd036"/></linearGradient><linearGradient id="linear-gradient-2" x1="29.86" y1="109.97" x2="121.77" y2="109.97" xlink:href="#linear-gradient"/><linearGradient id="linear-gradient-3" x1="77.96" y1="7.85" x2="73.67" y2="100.62" gradientUnits="userSpaceOnUse"><stop offset="0" stop-color="#fffb90"/><stop offset="0.05" stop-color="#eee37e"/><stop offset="0.15" stop-color="#c2a64e"/><stop offset="0.24" stop-color="#996c22"/><stop offset="0.44" stop-color="#f0e87b"/><stop offset="0.66" stop-color="#ffa"/><stop offset="0.83" stop-color="#fbe878"/><stop offset="1" stop-color="#d1ab59"/></linearGradient><linearGradient id="linear-gradient-4" x1="76.9" y1="74.48" x2="73.67" y2="144.3" xlink:href="#linear-gradient-3"/></defs><path class="cls-1" d="M57.21,73.14a1.82,1.82,0,0,1,0,2.57l-2.94,2.94L74.53,98.91l1.28,1.28L77.1,98.9,97.36,78.65l-2.94-2.94A1.82,1.82,0,0,1,97,73.14l2.94,2.93,20.55-20.55,1.29-1.28L120.48,53,77.1,9.57,75.81,8.29,74.53,9.57,31.15,53l-1.29,1.29,1.29,1.29L51.7,76.08l2.93-2.94A1.83,1.83,0,0,1,57.21,73.14ZM89.81,66l3.59,3.6a1.82,1.82,0,0,1-2.57,2.57l-3.6-3.6A1.82,1.82,0,0,1,89.81,66Zm-7.18-7.18,3.59,3.59a1.82,1.82,0,1,1-2.58,2.57l-3.59-3.59a1.82,1.82,0,0,1,2.58-2.57Zm-10-3.6L75.81,52,79,55.18a1.82,1.82,0,0,1-2.57,2.57l-.65-.65-.64.65a1.82,1.82,0,1,1-2.57-2.58Zm-7.19,7.19L69,58.77a1.82,1.82,0,0,1,2.57,2.57L68,64.93a1.82,1.82,0,1,1-2.58-2.57Zm-7.18,7.19L61.82,66a1.82,1.82,0,0,1,2.57,2.58L60.8,72.12a1.84,1.84,0,0,1-1.29.53,1.82,1.82,0,0,1-1.28-3.1Z"/><polygon class="cls-2" points="97.36 78.65 116.62 97.91 75.81 138.72 35.01 97.91 54.27 78.65 51.7 76.08 29.86 97.91 75.81 143.87 121.77 97.91 99.93 76.08 97.36 78.65"/><path class="cls-3" d="M57.21,73.14a1.82,1.82,0,0,1,0,2.57l-2.94,2.94L74.53,98.91l1.28,1.28L77.1,98.9,97.36,78.65l-2.94-2.94A1.82,1.82,0,0,1,97,73.14l2.94,2.93,20.55-20.55,1.29-1.28L120.48,53,77.1,9.57,75.81,8.29,74.53,9.57,31.15,53l-1.29,1.29,1.29,1.29L51.7,76.08l2.93-2.94A1.83,1.83,0,0,1,57.21,73.14Z"/><polygon class="cls-4" points="97.36 78.65 116.62 97.91 75.81 138.72 35.01 97.91 54.27 78.65 51.7 76.08 29.86 97.91 75.81 143.87 121.77 97.91 99.93 76.08 97.36 78.65"/></svg>