<svg id="Layer_1" data-name="Layer 1" xmlns="http://www.w3.org/2000/svg" xmlns:xlink="http://www.w3.org/1999/xlink" viewBox="0 0 151.63 152.15"><defs><style>.cls-1{fill:url(#linear-gradient);}.cls-2{fill:url(#linear-gradient-2);}.cls-3{fill:url(#linear-gradient-3);}.cls-4{fill:url(#linear-gradient-4);}.cls-5{fill:url(#linear-gradient-5);}.cls-10,.cls-6,.cls-7,.cls-8,.cls-9{fill:none;stroke-miterlimit:10;}.cls-6{stroke:url(#linear-gradient-6);}.cls-7{stroke:url(#linear-gradient-7);}.cls-8{stroke:url(#linear-gradient-8);}.cls-9{stroke:url(#linear-gradient-9);}.cls-10{stroke:url(#linear-gradient-10);}</style><linearGradient id="linear-gradient" x1="32.44" y1="107.98" x2="113.14" y2="107.98" gradientUnits="userSpaceOnUse"><stop offset="0" stop-color="#cc9f08"/><stop offset="1" stop-color="#ffd036"/></linearGradient><linearGradient id="linear-gradient-2" x1="32.44" y1="46.42" x2="113.14" y2="46.42" xlink:href="#linear-gradient"/><linearGradient id="linear-gradient-3" x1="91.25" y1="40.51" x2="104.92" y2="40.51" xlink:href="#linear-gradient"/><linearGradient id="linear-gradient-4" x1="14.01" y1="76.08" x2="131.54" y2="76.08" xlink:href="#linear-gradient"/><linearGradient id="linear-gradient-5" x1="97.09" y1="28.43" x2="137.62" y2="28.43" xlink:href="#linear-gradient"/><linearGradient id="linear-gradient-6" x1="52.23" y1="75.44" x2="93.81" y2="119.05" gradientUnits="userSpaceOnUse"><stop offset="0" stop-color="#fffb90"/><stop offset="0.05" stop-color="#eee37e"/><stop offset="0.15" stop-color="#c2a64e"/><stop offset="0.24" stop-color="#996c22"/><stop offset="0.44" stop-color="#f0e87b"/><stop offset="0.66" stop-color="#ffa"/><stop offset="0.83" stop-color="#fbe878"/><stop offset="1" stop-color="#d1ab59"/></linearGradient><linearGradient id="linear-gradient-7" x1="51.76" y1="35.38" x2="93.33" y2="78.97" xlink:href="#linear-gradient-6"/><linearGradient id="linear-gradient-8" x1="93.31" y1="34.56" x2="104.65" y2="46.45" xlink:href="#linear-gradient-6"/><linearGradient id="linear-gradient-9" x1="37.81" y1="26.21" x2="122" y2="114.51" xlink:href="#linear-gradient-6"/><linearGradient id="linear-gradient-10" x1="112.97" y1="23.82" x2="122.36" y2="33.67" xlink:href="#linear-gradient-6"/></defs><path class="cls-1" d="M63,120.4a10.6,10.6,0,0,1,19.62,0,44.52,44.52,0,0,0,30.54-24.84H32.44A44.71,44.71,0,0,0,63,120.4Z"/><path class="cls-2" d="M106.57,49.36c-.29.2-.58.49-.87.68l-.87.58c-.2.1-.29.19-.49.29a1,1,0,0,1-.48.19c-.19,0-.29.2-.48.2a10.58,10.58,0,0,1-1.55.48c-.19,0-.39.1-.58.1s-.39.09-.58.09a1.19,1.19,0,0,0-.58.1H98.93a11.63,11.63,0,0,1-11.6-11.6,12.46,12.46,0,0,1,1-4.64l-.1-.09h0A46.37,46.37,0,0,0,82.6,34a10.66,10.66,0,0,1-19.72,0A44.75,44.75,0,0,0,32.44,58.84h80.7A46.55,46.55,0,0,0,107,49,.71.71,0,0,0,106.57,49.36Z"/><path class="cls-3" d="M99,34.67a17.46,17.46,0,0,0,4-.77,7.74,7.74,0,1,0,1.93,11.5,29.85,29.85,0,0,1-6,.87h0a5.82,5.82,0,0,1-5.8-5.8A5.91,5.91,0,0,1,99,34.67Z"/><path class="cls-4" d="M14.75,95.85c1.45,4.35,4.64,7.44,7.54,10.25a35.35,35.35,0,0,1,4.15,4.44,35.48,35.48,0,0,1,2.9,5.32c1.74,3.67,3.68,7.73,7.45,10.44,3.57,2.61,7.82,3.19,12,3.77A33.14,33.14,0,0,1,55,131.32a39.76,39.76,0,0,1,5.7,2.71c3.67,1.93,7.44,4.06,11.89,4.06h0c4.64,0,8.6-2.13,12.17-4.06a47.32,47.32,0,0,1,5.51-2.61,30.81,30.81,0,0,1,6.09-1.16c4-.58,8.51-1.16,12.18-3.77s5.6-6.67,7.44-10.34a37,37,0,0,1,3-5.41,33.54,33.54,0,0,1,4.06-4.26c3-2.8,6.28-5.89,7.73-10.34s.67-9-.1-13a39.19,39.19,0,0,1-.77-5.89,45.12,45.12,0,0,1,.77-6.19c.68-4,1.55-8.41.19-12.66S126.19,51,123.29,48.2a35.49,35.49,0,0,1-4.16-4.44,23.57,23.57,0,0,1-1.93-3.38,47.65,47.65,0,0,1-7.06,3.28v.2a10.36,10.36,0,0,1-.77,1.83h0a48.22,48.22,0,0,1,10.92,22.52,1.88,1.88,0,0,1-1.55,2.22,6.71,6.71,0,0,0,0,13.15,1.93,1.93,0,0,1,1.55,2.22,48.46,48.46,0,0,1-38.56,38.47,1.9,1.9,0,0,1-2.23-1.55,6.75,6.75,0,0,0-8-5.22,6.87,6.87,0,0,0-5.22,5.22,2,2,0,0,1-1.93,1.55h-.39A48.46,48.46,0,0,1,25.38,85.8a1.88,1.88,0,0,1,1.55-2.22,6.71,6.71,0,0,0,0-13.15,1.93,1.93,0,0,1-1.55-2.22A48.46,48.46,0,0,1,63.94,29.74a1.9,1.9,0,0,1,2.23,1.55,6.75,6.75,0,0,0,8,5.22,6.87,6.87,0,0,0,5.22-5.22,1.94,1.94,0,0,1,2.22-1.55,57.16,57.16,0,0,1,8.89,2.52h.2a11.59,11.59,0,0,1,16.33-.49l.29.29a38.42,38.42,0,0,0,4.06-2,14.11,14.11,0,0,0-2.51-2.31,3.35,3.35,0,0,0-.78-.49A70.33,70.33,0,0,1,123,17.76a2,2,0,0,0,1.06-2.42,2,2,0,0,0-2.51-1.16c-.1,0-.1.1-.2.1a71.73,71.73,0,0,0-17.1,11.21A48.23,48.23,0,0,0,96.9,24a20,20,0,0,1-6.28-.87,39.26,39.26,0,0,1-5.7-2.71c-3.68-2-7.44-4.06-11.89-4.06h-.1a16.52,16.52,0,0,0-6.47,1.35,62.11,62.11,0,0,0-5.71,2.71A46.41,46.41,0,0,1,55.25,23a30.81,30.81,0,0,1-6.09,1.16c-4,.58-8.51,1.16-12.18,3.77s-5.7,6.67-7.44,10.24a36.55,36.55,0,0,1-3,5.42,34.13,34.13,0,0,1-4.06,4.25c-2.9,2.8-6.28,5.89-7.73,10.34s-.58,9,.19,13a39.33,39.33,0,0,1,.78,5.9,45,45,0,0,1-.78,6.18C14.17,87.06,13.4,91.5,14.75,95.85Z"/><path class="cls-5" d="M99,38.54a1.94,1.94,0,1,0,0,3.87h0c1.16,0,18.65-.39,38.17-24.84a1.92,1.92,0,1,0-3-2.42C115.75,38.15,99.32,38.54,99,38.54Z"/><path class="cls-6" d="M63,120.4a10.6,10.6,0,0,1,19.62,0,44.52,44.52,0,0,0,30.54-24.84H32.44A44.71,44.71,0,0,0,63,120.4Z"/><path class="cls-7" d="M106.57,49.36c-.29.2-.58.49-.87.68l-.87.58c-.2.1-.29.19-.49.29a1,1,0,0,1-.48.19c-.19,0-.29.2-.48.2a10.58,10.58,0,0,1-1.55.48c-.19,0-.39.1-.58.1s-.39.09-.58.09a1.19,1.19,0,0,0-.58.1H98.93a11.63,11.63,0,0,1-11.6-11.6,12.46,12.46,0,0,1,1-4.64l-.1-.09h0A46.37,46.37,0,0,0,82.6,34a10.66,10.66,0,0,1-19.72,0A44.75,44.75,0,0,0,32.44,58.84h80.7A46.55,46.55,0,0,0,107,49,.71.71,0,0,0,106.57,49.36Z"/><path class="cls-8" d="M99,34.67a17.46,17.46,0,0,0,4-.77,7.74,7.74,0,1,0,1.93,11.5,29.85,29.85,0,0,1-6,.87h0a5.82,5.82,0,0,1-5.8-5.8A5.91,5.91,0,0,1,99,34.67Z"/><path class="cls-9" d="M14.75,95.85c1.45,4.35,4.64,7.44,7.54,10.25a35.35,35.35,0,0,1,4.15,4.44,35.48,35.48,0,0,1,2.9,5.32c1.74,3.67,3.68,7.73,7.45,10.44,3.57,2.61,7.82,3.19,12,3.77A33.14,33.14,0,0,1,55,131.32a39.76,39.76,0,0,1,5.7,2.71c3.67,1.93,7.44,4.06,11.89,4.06h0c4.64,0,8.6-2.13,12.17-4.06a47.32,47.32,0,0,1,5.51-2.61,30.81,30.81,0,0,1,6.09-1.16c4-.58,8.51-1.16,12.18-3.77s5.6-6.67,7.44-10.34a37,37,0,0,1,3-5.41,33.54,33.54,0,0,1,4.06-4.26c3-2.8,6.28-5.89,7.73-10.34s.67-9-.1-13a39.19,39.19,0,0,1-.77-5.89,45.12,45.12,0,0,1,.77-6.19c.68-4,1.55-8.41.19-12.66S126.19,51,123.29,48.2a35.49,35.49,0,0,1-4.16-4.44,23.57,23.57,0,0,1-1.93-3.38,47.65,47.65,0,0,1-7.06,3.28v.2a10.36,10.36,0,0,1-.77,1.83h0a48.22,48.22,0,0,1,10.92,22.52,1.88,1.88,0,0,1-1.55,2.22,6.71,6.71,0,0,0,0,13.15,1.93,1.93,0,0,1,1.55,2.22,48.46,48.46,0,0,1-38.56,38.47,1.9,1.9,0,0,1-2.23-1.55,6.75,6.75,0,0,0-8-5.22,6.87,6.87,0,0,0-5.22,5.22,2,2,0,0,1-1.93,1.55h-.39A48.46,48.46,0,0,1,25.38,85.8a1.88,1.88,0,0,1,1.55-2.22,6.71,6.71,0,0,0,0-13.15,1.93,1.93,0,0,1-1.55-2.22A48.46,48.46,0,0,1,63.94,29.74a1.9,1.9,0,0,1,2.23,1.55,6.75,6.75,0,0,0,8,5.22,6.87,6.87,0,0,0,5.22-5.22,1.94,1.94,0,0,1,2.22-1.55,57.16,57.16,0,0,1,8.89,2.52h.2a11.59,11.59,0,0,1,16.33-.49l.29.29a38.42,38.42,0,0,0,4.06-2,14.11,14.11,0,0,0-2.51-2.31,3.35,3.35,0,0,0-.78-.49A70.33,70.33,0,0,1,123,17.76a2,2,0,0,0,1.06-2.42,2,2,0,0,0-2.51-1.16c-.1,0-.1.1-.2.1a71.73,71.73,0,0,0-17.1,11.21A48.23,48.23,0,0,0,96.9,24a20,20,0,0,1-6.28-.87,39.26,39.26,0,0,1-5.7-2.71c-3.68-2-7.44-4.06-11.89-4.06h-.1a16.52,16.52,0,0,0-6.47,1.35,62.11,62.11,0,0,0-5.71,2.71A46.41,46.41,0,0,1,55.25,23a30.81,30.81,0,0,1-6.09,1.16c-4,.58-8.51,1.16-12.18,3.77s-5.7,6.67-7.44,10.24a36.55,36.55,0,0,1-3,5.42,34.13,34.13,0,0,1-4.06,4.25c-2.9,2.8-6.28,5.89-7.73,10.34s-.58,9,.19,13a39.33,39.33,0,0,1,.78,5.9,45,45,0,0,1-.78,6.18C14.17,87.06,13.4,91.5,14.75,95.85Z"/><path class="cls-10" d="M99,38.54a1.94,1.94,0,1,0,0,3.87h0c1.16,0,18.65-.39,38.17-24.84a1.92,1.92,0,1,0-3-2.42C115.75,38.15,99.32,38.54,99,38.54Z"/></svg>