<svg id="Layer_1" data-name="Layer 1" xmlns="http://www.w3.org/2000/svg" xmlns:xlink="http://www.w3.org/1999/xlink" viewBox="0 0 151.63 152.15"><defs><style>.cls-1{fill:url(#linear-gradient);}.cls-2{fill:none;stroke-miterlimit:10;stroke:url(#linear-gradient-2);}</style><linearGradient id="linear-gradient" x1="18.57" y1="72.65" x2="133.06" y2="72.65" gradientUnits="userSpaceOnUse"><stop offset="0" stop-color="#cc9f08"/><stop offset="1" stop-color="#ffd036"/></linearGradient><linearGradient id="linear-gradient-2" x1="29.91" y1="109.39" x2="115" y2="31.64" gradientUnits="userSpaceOnUse"><stop offset="0" stop-color="#fffb90"/><stop offset="0.05" stop-color="#eee37e"/><stop offset="0.15" stop-color="#c2a64e"/><stop offset="0.24" stop-color="#996c22"/><stop offset="0.44" stop-color="#f0e87b"/><stop offset="0.66" stop-color="#ffa"/><stop offset="0.83" stop-color="#fbe878"/><stop offset="1" stop-color="#d1ab59"/></linearGradient></defs><path class="cls-1" d="M133.06,81.66V73.17a7.35,7.35,0,0,0-5.67-7.25,7,7,0,0,0-3.8.21,43.21,43.21,0,0,0-13.94-21.78,15.66,15.66,0,0,1,2.5-11.76A3.14,3.14,0,0,0,109,27.86c-8,1-12.59,4.74-15.17,8.13a42.85,42.85,0,0,0-9.21-1.55h-.16A38.24,38.24,0,0,1,26.82,79.09a1.2,1.2,0,0,0-.07.42A43,43,0,0,0,41.1,109.63a13.79,13.79,0,0,1,4.7,10.23v5.07a2.83,2.83,0,0,0,2.83,2.83H65.82a2.83,2.83,0,0,0,2.83-2.83v-4.36H82.28v4.36a2.83,2.83,0,0,0,2.84,2.83H102.3a2.83,2.83,0,0,0,2.84-2.83v-3.88A14,14,0,0,1,110,110.33,43,43,0,0,0,123.7,88.67a7.15,7.15,0,0,0,3.81.2A7.32,7.32,0,0,0,133.06,81.66Zm-26.71-15a4.25,4.25,0,1,1,4.25-4.24A4.24,4.24,0,0,1,106.35,66.68ZM18.57,47.36A29.82,29.82,0,1,0,48.39,17.54h0A29.84,29.84,0,0,0,18.57,47.36ZM50.68,29.91v1.9a20.68,20.68,0,0,1,4.43.64A2.83,2.83,0,0,1,54.39,38a3,3,0,0,1-.78-.11,14.54,14.54,0,0,0-4.24-.61c-3.16,0-4.18,1.41-4.18,2.72,0,1.6,1.7,2.61,5.83,4.17,5.78,2,8.11,4.72,8.11,9.08s-3.14,8-8.7,9v2.58a2.38,2.38,0,0,1-4.76,0V62.55a22.6,22.6,0,0,1-5.81-1A2.82,2.82,0,0,1,38,58.15v-.23A2.81,2.81,0,0,1,41.61,56a16.33,16.33,0,0,0,5.32.95c2.83,0,4.66-1.08,4.66-3s-1.56-3-5.16-4.24c-5.19-1.75-8.73-4.18-8.73-8.9,0-4.24,3-7.63,8.21-8.65V29.91a2.38,2.38,0,0,1,4.76,0h0Z"/><path class="cls-2" d="M133.06,81.66V73.17a7.35,7.35,0,0,0-5.67-7.25,7,7,0,0,0-3.8.21,43.21,43.21,0,0,0-13.94-21.78,15.66,15.66,0,0,1,2.5-11.76A3.14,3.14,0,0,0,109,27.86c-8,1-12.59,4.74-15.17,8.13a42.85,42.85,0,0,0-9.21-1.55h-.16A38.24,38.24,0,0,1,26.82,79.09a1.2,1.2,0,0,0-.07.42A43,43,0,0,0,41.1,109.63a13.79,13.79,0,0,1,4.7,10.23v5.07a2.83,2.83,0,0,0,2.83,2.83H65.82a2.83,2.83,0,0,0,2.83-2.83v-4.36H82.28v4.36a2.83,2.83,0,0,0,2.84,2.83H102.3a2.83,2.83,0,0,0,2.84-2.83v-3.88A14,14,0,0,1,110,110.33,43,43,0,0,0,123.7,88.67a7.15,7.15,0,0,0,3.81.2A7.32,7.32,0,0,0,133.06,81.66Zm-26.71-15a4.25,4.25,0,1,1,4.25-4.24A4.24,4.24,0,0,1,106.35,66.68ZM18.57,47.36A29.82,29.82,0,1,0,48.39,17.54h0A29.84,29.84,0,0,0,18.57,47.36ZM50.68,29.91v1.9a20.68,20.68,0,0,1,4.43.64A2.83,2.83,0,0,1,54.39,38a3,3,0,0,1-.78-.11,14.54,14.54,0,0,0-4.24-.61c-3.16,0-4.18,1.41-4.18,2.72,0,1.6,1.7,2.61,5.83,4.17,5.78,2,8.11,4.72,8.11,9.08s-3.14,8-8.7,9v2.58a2.38,2.38,0,0,1-4.76,0V62.55a22.6,22.6,0,0,1-5.81-1A2.82,2.82,0,0,1,38,58.15v-.23A2.81,2.81,0,0,1,41.61,56a16.33,16.33,0,0,0,5.32.95c2.83,0,4.66-1.08,4.66-3s-1.56-3-5.16-4.24c-5.19-1.75-8.73-4.18-8.73-8.9,0-4.24,3-7.63,8.21-8.65V29.91a2.38,2.38,0,0,1,4.76,0h0Z"/></svg>