<svg xmlns="http://www.w3.org/2000/svg" xmlns:xlink="http://www.w3.org/1999/xlink" width="60" height="60" viewBox="0 0 60 60"><defs><style>.a{fill:url(#a);}</style><linearGradient id="a" x1="0.5" x2="0.447" y2="1.266" gradientUnits="objectBoundingBox"><stop offset="0" stop-color="#ffd036"/><stop offset="1" stop-color="#cc9f08"/></linearGradient></defs><path class="a" d="M30.008,0h-.015A29.981,29.981,0,0,0,5.711,47.584L1.973,58.729,13.5,55.043A29.995,29.995,0,1,0,30.008,0ZM47.464,42.364c-.724,2.044-3.6,3.739-5.887,4.234-1.568.334-3.615.6-10.508-2.257-8.816-3.652-14.494-12.611-14.936-13.193-.424-.581-3.562-4.744-3.562-9.049a9.577,9.577,0,0,1,3.068-7.3A4.359,4.359,0,0,1,18.7,13.721c.371,0,.705.019,1,.034.881.038,1.324.09,1.905,1.481.724,1.744,2.486,6.049,2.7,6.491a1.786,1.786,0,0,1,.127,1.624,5.184,5.184,0,0,1-.971,1.376c-.442.51-.863.9-1.305,1.448-.4.476-.862.986-.352,1.868a26.628,26.628,0,0,0,4.868,6.049,22.056,22.056,0,0,0,7.035,4.339,1.9,1.9,0,0,0,2.115-.334,36.3,36.3,0,0,0,2.344-3.105,1.674,1.674,0,0,1,2.153-.652c.81.281,5.1,2.4,5.977,2.839s1.463.653,1.676,1.024A7.471,7.471,0,0,1,47.464,42.364Z"/></svg>