<svg id="Layer_1"  data-name="Layer 1" xmlns="http://www.w3.org/2000/svg" viewBox="0 0 151.63 152.15"><defs><style>.cls-1{fill-rule:evenodd;}</style></defs><path d="M101.71,89.2C98,86.13,90.46,80.35,89.88,80c-2.41-1.28-5.82,4.86-6.76,6.42h0c-2.34,3.24-5,1.29-6,.39v0h0C73,82.91,67.58,76,64.66,72.07s-.68-6,0-6.51l.14-.1h0a19.15,19.15,0,0,0,1.61-1.24,16.3,16.3,0,0,0,4.48-6.83,3.32,3.32,0,0,0-.44-3.12L63.19,44.5a3.31,3.31,0,0,0-4.63-.7l0,0c-2.89,2.17-7,6-8.5,10.7a25.08,25.08,0,0,0-.77,3.62,24,24,0,0,0,.77,8.8,41,41,0,0,0,4,9.9,53.08,53.08,0,0,0,8.41,11.4s3.61,4.05,6.48,6.67a32.84,32.84,0,0,0,12.77,7.81c2.44.73,5.19,1.52,8.57.76a15.39,15.39,0,0,0,6.48-3.43,23.69,23.69,0,0,0,5.76-6.65A3.28,3.28,0,0,0,101.71,89.2Z"/><path class="cls-1" d="M114.78,34.28a54.77,54.77,0,0,0-86.19,66.07l-7.77,28.38,29-7.62A54.74,54.74,0,0,0,76,127.78h0a54.79,54.79,0,0,0,38.73-93.5ZM76,118.53h0a45.49,45.49,0,0,1-23.17-6.34l-1.66-1L34,115.72l4.6-16.8L37.49,97.2A45.51,45.51,0,1,1,76,118.53Z"/></svg>